<?xml version="1.0" standalone="no"?>
<!DOCTYPE svg PUBLIC "-//W3C//DTD SVG 20010904//EN"
 "http://www.w3.org/TR/2001/REC-SVG-20010904/DTD/svg10.dtd">
<svg version="1.0" xmlns="http://www.w3.org/2000/svg"
 width="1280.000000pt" height="957.000000pt" viewBox="0 0 1280.000000 957.000000"
 preserveAspectRatio="xMidYMid meet">
<metadata>
Created by potrace 1.15, written by Peter Selinger 2001-2017
</metadata>
<g transform="translate(0.000000,957.000000) scale(0.100000,-0.100000)"
fill="#000000" stroke="none">
<path d="M8380 8873 c-98 -7 -111 -12 -126 -50 -8 -19 -14 -45 -13 -57 2 -11
-3 -32 -11 -46 -7 -14 -17 -45 -21 -70 -6 -38 -2 -54 22 -102 37 -74 38 -141
5 -478 -21 -213 -23 -277 -18 -490 8 -308 5 -522 -9 -624 -16 -119 -98 -391
-173 -569 -91 -218 -106 -266 -170 -551 -31 -137 -58 -251 -60 -253 -2 -2 -15
29 -30 69 -60 168 -68 252 -40 399 29 152 1 268 -86 363 -93 101 -235 131
-392 83 -46 -13 -95 -28 -109 -31 -51 -11 -54 3 -55 281 0 155 3 253 9 253 14
0 3 210 -11 219 -7 4 -49 6 -94 5 -69 -2 -87 1 -111 18 -20 14 -36 18 -55 14
-15 -4 -67 -9 -117 -11 -147 -6 -148 -7 -169 -108 -9 -44 -14 -82 -11 -86 2
-4 22 -13 44 -21 32 -10 41 -18 41 -37 0 -19 -5 -23 -31 -23 -65 0 -88 -41
-53 -95 14 -22 14 -42 0 -232 -9 -114 -19 -236 -22 -269 l-5 -61 -41 -14 c-23
-7 -66 -36 -96 -64 l-55 -50 7 39 c5 25 23 57 48 85 54 62 64 85 72 163 8 76
3 82 -83 113 -119 41 -500 60 -648 30 -139 -27 -273 -83 -273 -114 0 -27 -16
-35 -99 -54 -81 -19 -175 -67 -186 -94 -18 -48 -26 -198 -25 -473 0 -168 3
-319 6 -337 6 -30 4 -32 -68 -71 -40 -22 -99 -62 -132 -88 -72 -60 -156 -183
-156 -228 0 -18 -16 -88 -35 -157 -30 -108 -37 -157 -54 -375 -20 -251 -20
-252 -1 -465 11 -118 23 -232 26 -254 18 -118 -18 27 -136 545 -163 716 -151
673 -192 718 -18 20 -44 54 -56 74 -37 60 -319 295 -415 345 -64 34 -70 40
-98 102 -36 79 -58 204 -94 546 -14 132 -41 329 -61 437 -28 162 -33 204 -24
240 14 64 12 105 -9 146 -33 65 -52 186 -45 283 7 86 6 88 -23 126 -47 60 -50
70 -45 148 l5 73 -89 6 c-49 4 -106 11 -126 17 -42 11 -213 -11 -283 -36 -22
-8 -58 -18 -80 -22 -34 -7 -43 -15 -62 -53 -24 -48 -29 -109 -13 -140 7 -13 6
-33 -2 -64 -9 -36 -9 -53 2 -88 18 -56 14 -251 -6 -290 -21 -40 -18 -151 5
-196 17 -34 18 -51 9 -217 -6 -121 -13 -182 -21 -187 -7 -4 -26 -8 -43 -8 -71
0 -91 -10 -104 -51 -12 -34 -17 -39 -45 -39 l-31 0 -17 121 c-9 67 -21 127
-26 133 -6 6 -14 40 -20 74 -13 81 -36 119 -76 126 -17 3 -79 11 -139 16 -118
12 -172 7 -400 -35 -192 -36 -175 2 -181 -422 -5 -339 -4 -351 20 -477 43
-223 58 -363 46 -431 -6 -33 -12 -146 -14 -252 l-3 -191 -40 -68 c-29 -50 -65
-89 -141 -155 -63 -56 -110 -89 -125 -90 -16 0 -35 -16 -61 -50 -26 -34 -44
-49 -60 -49 -13 0 -34 -12 -48 -26 -13 -14 -50 -39 -81 -55 -37 -19 -58 -36
-58 -47 -1 -24 -28 -55 -72 -81 -21 -13 -38 -28 -38 -35 0 -13 -57 -71 -77
-77 -38 -13 -201 -233 -228 -309 -8 -24 -24 -57 -35 -75 -11 -18 -20 -42 -20
-53 0 -20 -48 -98 -94 -153 -32 -37 -53 -106 -61 -197 -3 -40 -13 -92 -21
-114 -8 -22 -14 -65 -14 -95 0 -34 -7 -66 -17 -83 -14 -24 -15 -36 -6 -77 9
-38 8 -53 -4 -76 -21 -42 -21 -210 1 -262 10 -24 14 -50 10 -68 -6 -30 9 -80
34 -109 10 -12 13 -31 9 -63 -3 -32 1 -62 15 -97 10 -28 18 -69 17 -92 -2 -33
5 -52 33 -92 19 -28 40 -72 47 -97 8 -28 23 -52 42 -66 21 -16 29 -30 29 -52
0 -22 12 -43 44 -77 24 -26 53 -71 65 -101 11 -29 29 -60 41 -68 11 -8 27 -27
35 -44 9 -17 36 -39 64 -54 30 -15 60 -41 78 -66 23 -33 41 -46 98 -68 39 -15
92 -42 119 -59 26 -17 62 -34 80 -38 17 -3 56 -21 86 -39 97 -57 132 -71 267
-105 l131 -32 269 4 c267 4 299 7 668 62 116 17 618 147 670 173 22 11 73 32
113 48 139 52 277 159 325 250 20 39 103 117 142 133 20 8 43 32 64 68 18 31
37 52 41 47 4 -4 25 -48 46 -98 22 -51 67 -130 105 -183 81 -111 93 -144 86
-226 -4 -40 3 -119 20 -231 25 -159 29 -173 60 -215 42 -56 142 -136 248 -200
71 -43 106 -55 311 -109 161 -42 264 -64 340 -71 60 -5 150 -16 199 -24 84
-13 99 -13 215 6 77 13 143 30 172 44 26 13 54 24 61 24 34 0 328 147 415 207
109 76 168 146 235 275 l44 87 5 153 c3 85 1 181 -5 216 l-10 63 50 52 c30 31
75 99 114 170 l64 118 7 -53 c3 -29 6 -81 7 -115 2 -104 37 -180 133 -285 112
-123 260 -219 448 -292 335 -131 591 -169 998 -147 192 11 234 16 362 48 165
42 266 85 430 185 93 57 127 85 176 143 99 118 98 114 132 665 l30 475 1 -233
1 -232 53 -83 c84 -130 278 -283 463 -366 110 -48 335 -119 514 -162 116 -27
160 -32 307 -36 194 -6 313 5 473 44 141 35 333 119 410 180 83 66 114 123
145 268 14 66 91 380 171 700 181 721 254 1074 254 1224 0 90 -4 116 -27 175
-26 69 -83 172 -149 270 -18 28 -34 62 -34 76 0 30 -33 81 -105 165 -28 33
-114 141 -190 240 l-139 180 -33 120 c-36 135 -41 215 -22 414 18 206 60 360
151 555 112 240 374 843 413 951 l32 90 39 5 c32 4 42 11 59 42 20 37 17 52
-17 99 -9 14 -6 30 19 85 30 67 31 70 14 99 -52 93 -424 239 -562 221 -72 -10
-76 -13 -111 -76 -24 -44 -41 -63 -70 -76 -66 -29 -89 -87 -57 -144 l20 -36
-66 -126 c-36 -69 -72 -132 -80 -138 -8 -7 -15 -19 -15 -28 0 -8 -12 -40 -27
-71 -14 -31 -30 -65 -34 -76 -9 -24 -72 -170 -105 -243 -13 -29 -24 -57 -24
-62 0 -5 -9 -25 -20 -45 -11 -20 -20 -39 -20 -44 0 -16 -42 -103 -47 -97 -3 2
-5 30 -4 60 0 30 -4 58 -10 62 -6 3 -8 21 -4 43 5 31 1 41 -24 69 -17 18 -35
52 -42 75 -6 23 -20 74 -31 112 -31 107 -34 149 -10 188 18 28 19 38 11 72 -6
22 -15 69 -20 104 -6 35 -25 94 -43 130 -29 59 -36 67 -66 71 -27 4 -35 11
-41 34 -11 40 -33 61 -87 84 -71 30 -137 35 -214 17 -37 -8 -71 -14 -75 -13
-33 8 -239 -84 -292 -131 -16 -15 -43 -56 -59 -92 l-30 -65 18 -47 c17 -45 17
-49 -1 -97 -33 -88 -17 -190 32 -203 13 -4 20 -19 25 -58 6 -47 13 -60 55
-102 49 -47 49 -47 80 -185 52 -237 88 -370 161 -601 l71 -223 -7 -96 c-10
-136 -48 -294 -95 -393 -93 -197 -263 -397 -496 -583 -102 -82 -219 -189 -264
-241 -54 -64 -116 -192 -132 -274 -9 -47 -11 -165 -6 -449 l6 -385 -22 36
c-12 20 -59 74 -104 120 l-83 84 0 76 c0 41 7 158 15 259 16 203 42 717 52
1018 7 222 -5 338 -62 625 -59 293 -182 627 -418 1137 -125 268 -159 445 -172
868 -3 102 -10 304 -16 449 -13 293 -9 377 21 442 11 24 20 53 20 64 0 33 -20
93 -36 110 -11 10 -14 24 -10 41 10 38 -11 91 -37 98 -22 6 -333 5 -417 -1z
m-917 -2517 c70 -25 109 -80 121 -170 12 -93 -24 -162 -110 -210 -46 -26 -46
-26 -98 -9 -60 20 -138 88 -168 147 -48 94 17 219 128 245 55 13 83 12 127 -3z
m-4573 -409 c19 -265 -4 -368 -109 -471 l-49 -49 -11 39 c-13 48 -31 296 -31
424 l0 95 51 65 c48 61 55 65 94 67 l42 1 13 -171z"/>
</g>
</svg>
