<?xml version="1.0" standalone="no"?>
<!DOCTYPE svg PUBLIC "-//W3C//DTD SVG 20010904//EN"
 "http://www.w3.org/TR/2001/REC-SVG-20010904/DTD/svg10.dtd">
<svg version="1.0" xmlns="http://www.w3.org/2000/svg"
 width="1280.000000pt" height="1266.000000pt" viewBox="0 0 1280.000000 1266.000000"
 preserveAspectRatio="xMidYMid meet">
<metadata>
Created by potrace 1.15, written by Peter Selinger 2001-2017
</metadata>
<g transform="translate(0.000000,1266.000000) scale(0.100000,-0.100000)"
fill="#000000" stroke="none">
<path d="M6749 11530 c-42 -4 -81 -10 -85 -13 -5 -3 -54 -10 -109 -17 -55 -7
-140 -21 -190 -32 -49 -12 -110 -24 -135 -28 -25 -4 -76 -20 -115 -34 l-70
-27 -401 -4 c-221 -2 -421 -9 -445 -14 -24 -6 -71 -11 -103 -11 -67 0 -193
-15 -306 -35 -41 -8 -97 -17 -125 -20 -104 -13 -356 -71 -435 -102 -226 -86
-256 -102 -391 -210 -96 -77 -124 -110 -168 -200 -38 -77 -41 -88 -45 -190 -5
-131 7 -214 39 -269 30 -51 25 -105 -14 -149 -15 -16 -34 -39 -42 -49 -13 -18
-12 -19 19 -13 17 4 32 4 32 1 0 -3 -18 -40 -40 -83 -22 -43 -40 -84 -40 -93
0 -9 -7 -32 -15 -51 -8 -20 -15 -59 -15 -87 0 -28 -9 -78 -20 -110 -12 -35
-18 -71 -14 -85 10 -39 23 -29 19 13 -5 41 6 68 24 58 16 -10 13 -46 -9 -91
-21 -45 -20 -51 8 -36 29 16 71 14 88 -4 9 -8 19 -15 24 -15 4 0 13 46 20 103
6 56 13 111 15 122 2 11 4 24 4 28 1 5 6 7 13 5 7 -3 17 -27 23 -54 9 -41 7
-65 -13 -153 -27 -122 -26 -155 4 -159 15 -2 23 3 27 17 12 47 61 6 88 -74 23
-68 36 -234 43 -530 3 -104 8 -236 12 -293 4 -65 3 -111 -3 -125 -83 -175
-101 -293 -77 -497 19 -159 41 -209 140 -306 137 -136 356 -249 566 -293 206
-44 553 -78 823 -80 88 -1 196 -4 240 -7 112 -7 488 16 725 45 47 6 146 15
220 21 74 6 200 20 280 31 80 11 181 24 225 29 541 58 895 161 1158 339 41 27
81 60 89 73 9 12 38 46 65 74 27 27 61 76 76 108 36 75 70 238 61 291 -8 50
-29 131 -43 168 -6 16 -11 65 -12 110 0 88 -19 209 -36 242 -6 11 -8 27 -4 35
15 28 35 195 34 280 0 47 -8 120 -17 162 -9 42 -16 81 -16 85 0 5 28 19 63 32
l64 24 -19 88 c-10 49 -29 109 -43 135 -31 58 -31 61 0 86 19 15 25 29 25 59
0 21 3 39 8 39 20 1 33 21 42 69 5 29 7 58 3 65 -8 12 -14 76 -8 76 2 0 15 -4
29 -10 31 -11 34 -30 7 -30 -11 0 -23 -4 -26 -10 -8 -13 -5 -12 33 1 l30 10
-27 52 c-14 29 -37 78 -50 109 -22 56 -22 60 -7 119 8 34 22 69 30 78 8 9 29
47 47 85 54 114 50 223 -11 385 -28 73 -66 125 -142 196 -80 74 -133 111 -223
157 -173 88 -333 142 -499 168 -203 32 -432 53 -646 59 -13 1 -40 16 -60 35
-73 69 -162 136 -178 135 -9 -1 -51 -5 -93 -9z m1771 -1610 c0 -5 -7 -10 -15
-10 -8 0 -15 5 -15 10 0 6 7 10 15 10 8 0 15 -4 15 -10z m1 -67 c-4 -24 -12
-38 -21 -38 -21 0 -23 56 -2 71 24 18 30 10 23 -33z m-4711 -363 c0 -22 -4
-28 -15 -24 -8 4 -15 17 -15 30 0 15 6 24 15 24 10 0 15 -10 15 -30z"/>
<path d="M3525 9520 c-3 -5 1 -10 9 -10 9 0 16 5 16 10 0 6 -4 10 -9 10 -6 0
-13 -4 -16 -10z"/>
<path d="M3560 9503 c0 -13 72 -50 110 -57 27 -6 20 0 -34 28 -77 39 -76 39
-76 29z"/>
<path d="M10984 9057 c-66 -138 -74 -200 -74 -614 0 -189 -3 -343 -7 -344 -44
-4 -69 -10 -89 -24 l-24 -15 0 -399 c0 -345 -2 -400 -15 -405 -8 -3 -15 -11
-15 -19 0 -7 -20 -23 -45 -35 -70 -34 -79 -56 -85 -204 l-5 -128 -419 -3 -418
-3 -20 -24 c-20 -25 -20 -33 -13 -675 4 -357 8 -651 9 -652 1 -1 183 -3 406
-4 223 -1 560 -6 750 -11 363 -9 653 3 688 28 16 11 17 72 17 791 0 875 5 814
-77 873 -22 16 -46 40 -53 53 -8 16 -10 125 -7 415 3 286 2 396 -7 406 -6 7
-29 16 -51 20 l-39 6 -3 408 c-3 402 -3 408 -26 454 -18 37 -38 56 -89 89 -81
51 -201 109 -226 109 -13 0 -31 -26 -63 -93z"/>
<path d="M1586 8579 c-86 -6 -139 -15 -195 -34 -119 -41 -110 -18 -108 -306 1
-137 -1 -249 -4 -249 -4 0 -18 9 -32 20 -14 11 -28 20 -30 20 -3 0 -16 -21
-28 -46 -17 -33 -21 -50 -13 -62 5 -9 47 -35 92 -57 45 -22 82 -43 82 -46 0
-11 -236 -118 -329 -149 -79 -26 -105 -43 -131 -86 -21 -33 -21 -34 -20 -1501
0 -1380 1 -1469 18 -1484 9 -9 99 -69 199 -133 l182 -117 413 3 413 3 50 31
c28 16 122 69 210 116 202 109 206 113 201 181 -3 28 -5 689 -6 1467 l-1 1415
-27 40 c-20 28 -41 45 -72 56 -74 26 -144 59 -165 78 -11 10 -38 24 -59 31
-60 19 -167 71 -162 79 2 3 27 17 55 31 64 31 71 50 35 97 l-27 36 -2 244 c-1
135 -6 247 -11 252 -5 4 -47 23 -93 41 -76 30 -95 33 -200 35 -64 1 -169 -2
-235 -6z"/>
<path d="M3750 5450 l-294 -5 -15 -45 c-21 -68 -28 -659 -23 -2192 l5 -1328
448 0 449 0 0 -248 c0 -290 -20 -243 164 -372 l118 -83 317 6 316 6 154 78
c84 43 167 86 183 96 l29 17 -5 1058 c-2 666 -8 1066 -14 1082 -13 35 -25 43
-107 74 -87 34 -235 107 -235 117 0 4 16 16 35 28 39 23 38 37 -3 74 -15 14
-18 25 -13 45 5 15 7 92 7 172 l-1 145 -60 29 c-49 25 -76 31 -147 34 l-88 4
0 494 c0 451 -2 502 -20 595 -11 57 -23 106 -27 110 -11 9 -815 16 -1173 9z"/>
<path d="M8173 4515 c-21 -13 -44 -34 -50 -47 -17 -35 -33 -145 -33 -231 0
-42 -4 -79 -10 -82 -6 -4 -10 -207 -10 -550 l0 -545 26 0 26 0 -25 -30 c-25
-29 -25 -33 -22 -157 1 -71 3 -462 4 -871 1 -514 4 -741 11 -737 7 4 9 -2 5
-17 -3 -12 0 -31 7 -41 13 -17 43 -18 513 -17 275 0 513 4 527 8 15 4 69 5
120 1 65 -3 101 -1 120 8 l26 13 -5 121 c-4 82 -3 123 5 128 7 4 11 233 12
771 1 421 1 771 1 778 -1 6 -8 12 -16 12 -8 0 -15 9 -15 20 0 11 5 20 10 20
13 0 6 1019 -8 1180 -6 63 -11 134 -11 158 -1 33 -8 50 -34 78 -31 34 -38 37
-117 45 -47 5 -295 9 -551 8 l-467 -1 -39 -23z"/>
</g>
</svg>
